999
dxflib 3.17.0.0
  0
SECTION
  2
HEADER
  9
$ACADVER
  1
AC1015
  9
$HANDSEED
  5
FFFF
  9
$DIMADEC
 70
0
  9
$DIMASZ
 40
0.125
  9
$DIMAUNIT
 70
0
  9
$DIMAZIN
 70
2
  9
$DIMDEC
 70
5
  9
$DIMDLI
 40
0.25
  9
$DIMDSEP
 70
46
  9
$DIMEXE
 40
0.0625
  9
$DIMEXO
 40
0.03125
  9
$DIMGAP
 40
0.03125
  9
$DIMLUNIT
 70
5
  9
$DIMSCALE
 40
4.0
  9
$DIMTSZ
 40
0.0
  9
$DIMTXT
 40
0.125
  9
$DIMZIN
 70
8
  9
$DWGCODEPAGE
  3
ANSI_1252
  9
$INSUNITS
 70
1
  9
$LTSCALE
 40
1.0
  9
$MAXACTVP
 70
64
  9
$MEASUREMENT
 70
0
  9
$PDMODE
 70
0
  9
$PDSIZE
 40
0.0
  0
ENDSEC
  0
SECTION
  2
TABLES
  0
TABLE
  2
VPORT
  5
8
100
AcDbSymbolTable
 70
1
  0
VPORT
  5
30
100
AcDbSymbolTableRecord
100
AcDbViewportTableRecord
  2
*Active
 70
0
 10
0.0
 20
0.0
 11
1.0
 21
1.0
 12
286.3055555555554861
 22
148.5
 13
0.0
 23
0.0
 14
10.0
 24
10.0
 15
10.0
 25
10.0
 16
0.0
 26
0.0
 36
1.0
 17
0.0
 27
0.0
 37
0.0
 40
297.0
 41
1.92798353909465
 42
50.0
 43
0.0
 44
0.0
 50
0.0
 51
0.0
 71
0
 72
100
 73
1
 74
3
 75
1
 76
1
 77
0
 78
0
281
0
 65
1
110
0.0
120
0.0
130
0.0
111
1.0
121
0.0
131
0.0
112
0.0
122
1.0
132
0.0
 79
0
146
0.0
  0
ENDTAB
  0
TABLE
  2
LTYPE
  5
5
100
AcDbSymbolTable
 70
41
  0
LTYPE
  5
16
100
AcDbSymbolTableRecord
100
AcDbLinetypeTableRecord
  2
Continuous
 70
0
  3
Solid line
 72
65
 73
0
 40
0.0
  0
LTYPE
  5
31
100
AcDbSymbolTableRecord
100
AcDbLinetypeTableRecord
  2
CENTER2
 70
0
  3
Center (.5x) ___ _ ___ _ ___ _ ___ _ ___ _ ___
 72
65
 73
4
 40
1.125
 49
0.75
 74
0
 49
-0.125
 74
0
 49
0.125
 74
0
 49
-0.125
 74
0
  0
LTYPE
  5
32
100
AcDbSymbolTableRecord
100
AcDbLinetypeTableRecord
  2
HIDDEN2
 70
0
  3
Hidden (.5x) _ _ _ _ _ _ _ _ _ _ _ _ _ _ _ _ _ 
 72
65
 73
2
 40
0.1875
 49
0.125
 74
0
 49
-0.0625
 74
0
  0
LTYPE
  5
33
100
AcDbSymbolTableRecord
100
AcDbLinetypeTableRecord
  2
CENTERX2
 70
0
  3
Center (2x) ________  __  ________  __  _____
 72
65
 73
4
 40
4.0
 49
2.5
 74
0
 49
-0.5
 74
0
 49
0.5
 74
0
 49
-0.5
 74
0
  0
LTYPE
  5
34
100
AcDbSymbolTableRecord
100
AcDbLinetypeTableRecord
  2
DASHDOT2
 70
0
  3
Dash dot (.5x) _._._._._._._._._._._._._._._.
 72
65
 73
4
 40
0.5
 49
0.25
 74
0
 49
-0.075
 74
0
 49
0.1
 74
0
 49
-0.075
 74
0
  0
LTYPE
  5
35
100
AcDbSymbolTableRecord
100
AcDbLinetypeTableRecord
  2
DIVIDE2
 70
0
  3
Divide (.5x) __..__..__..__..__..__..__..__.._
 72
65
 73
6
 40
0.625
 49
0.25
 74
0
 49
-0.075
 74
0
 49
0.1
 74
0
 49
-0.025
 74
0
 49
0.1
 74
0
 49
-0.075
 74
0
  0
LTYPE
  5
36
100
AcDbSymbolTableRecord
100
AcDbLinetypeTableRecord
  2
DOTX2
 70
0
  3
Dot (2x) .  .  .  .  .  .  .  .  .  .  .  .  .  .
 72
65
 73
2
 40
0.5
 49
0.1
 74
0
 49
-0.4
 74
0
  0
LTYPE
  5
37
100
AcDbSymbolTableRecord
100
AcDbLinetypeTableRecord
  2
ACAD_ISO07W100
 70
0
  3
ISO dot . . . . . . . . . . . . . . . . . . . . 
 72
65
 73
2
 40
3.0
 49
0.1
 74
0
 49
-2.8999999999999999
 74
0
  0
LTYPE
  5
38
100
AcDbSymbolTableRecord
100
AcDbLinetypeTableRecord
  2
DIVIDEX2
 70
0
  3
Divide (2x) ________  .  .  ________  .  .  _
 72
65
 73
6
 40
2.5000000000000004
 49
1.0
 74
0
 49
-0.45
 74
0
 49
0.1
 74
0
 49
-0.4
 74
0
 49
0.1
 74
0
 49
-0.45
 74
0
  0
LTYPE
  5
39
100
AcDbSymbolTableRecord
100
AcDbLinetypeTableRecord
  2
DOT2
 70
0
  3
Dot (.5x) ........................................
 72
65
 73
2
 40
0.125
 49
0.1
 74
0
 49
-0.025
 74
0
  0
LTYPE
  5
3A
100
AcDbSymbolTableRecord
100
AcDbLinetypeTableRecord
  2
ACAD_ISO14W100
 70
0
  3
ISO dash triple-dot __ . . . __ . . . __ . . . _
 72
65
 73
8
 40
24.0000000000000036
 49
12.0
 74
0
 49
-2.9500000000000002
 74
0
 49
0.1
 74
0
 49
-2.9000000000000004
 74
0
 49
0.1
 74
0
 49
-2.9000000000000004
 74
0
 49
0.1
 74
0
 49
-2.9500000000000002
 74
0
  0
LTYPE
  5
3B
100
AcDbSymbolTableRecord
100
AcDbLinetypeTableRecord
  2
BORDER2
 70
0
  3
Border (.5x) __.__.__.__.__.__.__.__.__.__.__.
 72
65
 73
6
 40
0.8749999999999999
 49
0.25
 74
0
 49
-0.125
 74
0
 49
0.25
 74
0
 49
-0.075
 74
0
 49
0.1
 74
0
 49
-0.075
 74
0
  0
LTYPE
  5
3C
100
AcDbSymbolTableRecord
100
AcDbLinetypeTableRecord
  2
DASHDOTX2
 70
0
  3
Dash dot (2x) ____  .  ____  .  ____  .  ___
 72
65
 73
4
 40
2.0
 49
1.0
 74
0
 49
-0.45
 74
0
 49
0.1
 74
0
 49
-0.45
 74
0
  0
LTYPE
  5
3D
100
AcDbSymbolTableRecord
100
AcDbLinetypeTableRecord
  2
ACAD_ISO09W100
 70
0
  3
ISO long-dash double-short-dash ____ __ __ ____
 72
65
 73
6
 40
45.0
 49
24.0
 74
0
 49
-3.0
 74
0
 49
6.0
 74
0
 49
-3.0
 74
0
 49
6.0
 74
0
 49
-3.0
 74
0
  0
LTYPE
  5
3E
100
AcDbSymbolTableRecord
100
AcDbLinetypeTableRecord
  2
BORDER
 70
0
  3
Border __ __ . __ __ . __ __ . __ __ . __ __ .
 72
65
 73
6
 40
1.75
 49
0.5
 74
0
 49
-0.25
 74
0
 49
0.5
 74
0
 49
-0.2
 74
0
 49
0.1
 74
0
 49
-0.2
 74
0
  0
LTYPE
  5
3F
100
AcDbSymbolTableRecord
100
AcDbLinetypeTableRecord
  2
PHANTOM2
 70
0
  3
Phantom (.5x) ___ _ _ ___ _ _ ___ _ _ ___ _ _
 72
65
 73
6
 40
1.25
 49
0.625
 74
0
 49
-0.125
 74
0
 49
0.125
 74
0
 49
-0.125
 74
0
 49
0.125
 74
0
 49
-0.125
 74
0
  0
LTYPE
  5
15
100
AcDbSymbolTableRecord
100
AcDbLinetypeTableRecord
  2
BYLAYER
 70
0
  3

 72
65
 73
0
 40
0.0
  0
LTYPE
  5
40
100
AcDbSymbolTableRecord
100
AcDbLinetypeTableRecord
  2
CENTER
 70
0
  3
Center ____ _ ____ _ ____ _ ____ _ ____ _ ____
 72
65
 73
4
 40
2.0
 49
1.25
 74
0
 49
-0.25
 74
0
 49
0.25
 74
0
 49
-0.25
 74
0
  0
LTYPE
  5
41
100
AcDbSymbolTableRecord
100
AcDbLinetypeTableRecord
  2
ACAD_ISO03W100
 70
0
  3
ISO dash space __    __    __    __    __    __
 72
65
 73
2
 40
30.0
 49
12.0
 74
0
 49
-18.0
 74
0
  0
LTYPE
  5
42
100
AcDbSymbolTableRecord
100
AcDbLinetypeTableRecord
  2
ACAD_ISO05W100
 70
0
  3
ISO long-dash double-dot ____ .. ____ .. ____ . 
 72
65
 73
6
 40
33.0000000000000071
 49
24.0
 74
0
 49
-2.9500000000000002
 74
0
 49
0.1
 74
0
 49
-2.9000000000000004
 74
0
 49
0.1
 74
0
 49
-2.9500000000000002
 74
0
  0
LTYPE
  5
43
100
AcDbSymbolTableRecord
100
AcDbLinetypeTableRecord
  2
HIDDENX2
 70
0
  3
Hidden (2x) ____ ____ ____ ____ ____ ____ ____ 
 72
65
 73
2
 40
0.75
 49
0.5
 74
0
 49
-0.25
 74
0
  0
LTYPE
  5
44
100
AcDbSymbolTableRecord
100
AcDbLinetypeTableRecord
  2
DASHED2
 70
0
  3
Dashed (.5x) _ _ _ _ _ _ _ _ _ _ _ _ _ _ _ _ _ 
 72
65
 73
2
 40
0.375
 49
0.25
 74
0
 49
-0.125
 74
0
  0
LTYPE
  5
45
100
AcDbSymbolTableRecord
100
AcDbLinetypeTableRecord
  2
DOT
 70
0
  3
Dot . . . . . . . . . . . . . . . . . . . . . . . .
 72
65
 73
2
 40
0.25
 49
0.1
 74
0
 49
-0.15
 74
0
  0
LTYPE
  5
46
100
AcDbSymbolTableRecord
100
AcDbLinetypeTableRecord
  2
PHANTOM
 70
0
  3
Phantom ______  __  __  ______  __  __  ______ 
 72
65
 73
6
 40
2.5
 49
1.25
 74
0
 49
-0.25
 74
0
 49
0.25
 74
0
 49
-0.25
 74
0
 49
0.25
 74
0
 49
-0.25
 74
0
  0
LTYPE
  5
47
100
AcDbSymbolTableRecord
100
AcDbLinetypeTableRecord
  2
ACAD_ISO12W100
 70
0
  3
ISO dash double-dot __ . . __ . . __ . . __ . . 
 72
65
 73
6
 40
21.0
 49
12.0
 74
0
 49
-2.9500000000000002
 74
0
 49
0.1
 74
0
 49
-2.9000000000000004
 74
0
 49
0.1
 74
0
 49
-2.9500000000000002
 74
0
  0
LTYPE
  5
48
100
AcDbSymbolTableRecord
100
AcDbLinetypeTableRecord
  2
DIVIDE
 70
0
  3
Divide ____ . . ____ . . ____ . . ____ . . ____
 72
65
 73
6
 40
1.25
 49
0.5
 74
0
 49
-0.2
 74
0
 49
0.1
 74
0
 49
-0.15
 74
0
 49
0.1
 74
0
 49
-0.2
 74
0
  0
LTYPE
  5
14
100
AcDbSymbolTableRecord
100
AcDbLinetypeTableRecord
  2
BYBLOCK
 70
0
  3

 72
65
 73
0
 40
0.0
  0
LTYPE
  5
49
100
AcDbSymbolTableRecord
100
AcDbLinetypeTableRecord
  2
ACAD_ISO11W100
 70
0
  3
ISO double-dash dot __ __ . __ __ . __ __ . __ _
 72
65
 73
6
 40
33.0
 49
12.0
 74
0
 49
-3.0
 74
0
 49
12.0
 74
0
 49
-2.9500000000000002
 74
0
 49
0.1
 74
0
 49
-2.9500000000000002
 74
0
  0
LTYPE
  5
4A
100
AcDbSymbolTableRecord
100
AcDbLinetypeTableRecord
  2
BORDERX2
 70
0
  3
Border (2x) ____  ____  .  ____  ____  .  ___
 72
65
 73
6
 40
3.5000000000000004
 49
1.0
 74
0
 49
-0.5
 74
0
 49
1.0
 74
0
 49
-0.45
 74
0
 49
0.1
 74
0
 49
-0.45
 74
0
  0
LTYPE
  5
4B
100
AcDbSymbolTableRecord
100
AcDbLinetypeTableRecord
  2
ACAD_ISO13W100
 70
0
  3
ISO double-dash double-dot __ __ . . __ __ . . _
 72
65
 73
8
 40
36.0000000000000071
 49
12.0
 74
0
 49
-3.0
 74
0
 49
12.0
 74
0
 49
-2.9500000000000002
 74
0
 49
0.1
 74
0
 49
-2.9000000000000004
 74
0
 49
0.1
 74
0
 49
-2.9500000000000002
 74
0
  0
LTYPE
  5
4C
100
AcDbSymbolTableRecord
100
AcDbLinetypeTableRecord
  2
ACAD_ISO04W100
 70
0
  3
ISO long-dash dot ____ . ____ . ____ . ____ . _
 72
65
 73
4
 40
30.0
 49
24.0
 74
0
 49
-2.9500000000000002
 74
0
 49
0.1
 74
0
 49
-2.9500000000000002
 74
0
  0
LTYPE
  5
4D
100
AcDbSymbolTableRecord
100
AcDbLinetypeTableRecord
  2
PHANTOMX2
 70
0
  3
Phantom (2x) ____________    ____    ____   _
 72
65
 73
6
 40
5.0
 49
2.5
 74
0
 49
-0.5
 74
0
 49
0.5
 74
0
 49
-0.5
 74
0
 49
0.5
 74
0
 49
-0.5
 74
0
  0
LTYPE
  5
4E
100
AcDbSymbolTableRecord
100
AcDbLinetypeTableRecord
  2
ACAD_ISO08W100
 70
0
  3
ISO long-dash short-dash ____ __ ____ __ ____ _
 72
65
 73
4
 40
36.0
 49
24.0
 74
0
 49
-3.0
 74
0
 49
6.0
 74
0
 49
-3.0
 74
0
  0
LTYPE
  5
4F
100
AcDbSymbolTableRecord
100
AcDbLinetypeTableRecord
  2
ACAD_ISO06W100
 70
0
  3
ISO long-dash triple-dot ____ ... ____ ... ____
 72
65
 73
8
 40
36.0000000000000071
 49
24.0
 74
0
 49
-2.9500000000000002
 74
0
 49
0.1
 74
0
 49
-2.9000000000000004
 74
0
 49
0.1
 74
0
 49
-2.9000000000000004
 74
0
 49
0.1
 74
0
 49
-2.9500000000000002
 74
0
  0
LTYPE
  5
50
100
AcDbSymbolTableRecord
100
AcDbLinetypeTableRecord
  2
DASHEDX2
 70
0
  3
Dashed (2x) ____  ____  ____  ____  ____  ___
 72
65
 73
2
 40
1.5
 49
1.0
 74
0
 49
-0.5
 74
0
  0
LTYPE
  5
51
100
AcDbSymbolTableRecord
100
AcDbLinetypeTableRecord
  2
DASHDOT
 70
0
  3
Dash dot __ . __ . __ . __ . __ . __ . __ . __
 72
65
 73
4
 40
1.0
 49
0.5
 74
0
 49
-0.2
 74
0
 49
0.1
 74
0
 49
-0.2
 74
0
  0
LTYPE
  5
52
100
AcDbSymbolTableRecord
100
AcDbLinetypeTableRecord
  2
ACAD_ISO15W100
 70
0
  3
ISO double-dash triple-dot __ __ . . . __ __ . .
 72
65
 73
10
 40
39.0000000000000071
 49
12.0
 74
0
 49
-3.0
 74
0
 49
12.0
 74
0
 49
-2.9500000000000002
 74
0
 49
0.1
 74
0
 49
-2.9000000000000004
 74
0
 49
0.1
 74
0
 49
-2.9000000000000004
 74
0
 49
0.1
 74
0
 49
-2.9500000000000002
 74
0
  0
LTYPE
  5
53
100
AcDbSymbolTableRecord
100
AcDbLinetypeTableRecord
  2
ACAD_ISO02W100
 70
0
  3
ISO dash __ __ __ __ __ __ __ __ __ __ __ __ __
 72
65
 73
2
 40
15.0
 49
12.0
 74
0
 49
-3.0
 74
0
  0
LTYPE
  5
54
100
AcDbSymbolTableRecord
100
AcDbLinetypeTableRecord
  2
HIDDEN
 70
0
  3
Hidden __ __ __ __ __ __ __ __ __ __ __ __ __ __
 72
65
 73
2
 40
0.375
 49
0.25
 74
0
 49
-0.125
 74
0
  0
LTYPE
  5
55
100
AcDbSymbolTableRecord
100
AcDbLinetypeTableRecord
  2
DASHED
 70
0
  3
Dashed __ __ __ __ __ __ __ __ __ __ __ __ __ _
 72
65
 73
2
 40
0.75
 49
0.5
 74
0
 49
-0.25
 74
0
  0
LTYPE
  5
56
100
AcDbSymbolTableRecord
100
AcDbLinetypeTableRecord
  2
ACAD_ISO10W100
 70
0
  3
ISO dash dot __ . __ . __ . __ . __ . __ . __ . 
 72
65
 73
4
 40
18.0
 49
12.0
 74
0
 49
-2.9500000000000002
 74
0
 49
0.1
 74
0
 49
-2.9500000000000002
 74
0
  0
ENDTAB
  0
TABLE
  2
LAYER
  5
2
100
AcDbSymbolTable
 70
6
  0
LAYER
  5
57
100
AcDbSymbolTableRecord
100
AcDbLayerTableRecord
  2
Visible
 70
0
 62
7
420
0
  6
Continuous
370
50
390
F
  0
LAYER
  5
58
100
AcDbSymbolTableRecord
100
AcDbLayerTableRecord
  2
Dimension
 70
0
 62
1
420
16711680
  6
Continuous
370
13
390
F
  0
LAYER
  5
59
100
AcDbSymbolTableRecord
100
AcDbLayerTableRecord
  2
PageBorder
 70
4
 62
5
420
255
  6
Continuous
370
50
390
F
  0
LAYER
  5
10
100
AcDbSymbolTableRecord
100
AcDbLayerTableRecord
  2
0
 70
0
 62
7
420
0
  6
Continuous
370
25
390
F
  0
LAYER
  5
5A
100
AcDbSymbolTableRecord
100
AcDbLayerTableRecord
  2
Hatch
 70
0
 62
252
420
10526884
  6
Continuous
370
25
390
F
  0
LAYER
  5
5B
100
AcDbSymbolTableRecord
100
AcDbLayerTableRecord
  2
Construction
 70
0
 62
252
420
10526884
  6
ACAD_ISO02W100
370
25
390
F
  0
ENDTAB
  0
TABLE
  2
STYLE
  5
3
100
AcDbSymbolTable
 70
6
  0
STYLE
  5
5C
100
AcDbSymbolTableRecord
100
AcDbTextStyleTableRecord
  2
Standard
 70
0
 40
0.0
 41
1.0
 50
0.0
 71
0
 42
2.5
  3

  4

1001
ACAD
1000
txt
1071
0
  0
STYLE
  5
5D
100
AcDbSymbolTableRecord
100
AcDbTextStyleTableRecord
  2
textstyle0
 70
0
 40
0.0
 41
1.0
 50
0.0
 71
0
 42
0.375
  3

  4

1001
ACAD
1000
Arial
1071
0
  0
STYLE
  5
5E
100
AcDbSymbolTableRecord
100
AcDbTextStyleTableRecord
  2
textstyle1
 70
0
 40
0.0
 41
1.0
 50
0.0
 71
0
 42
0.375
  3

  4

1001
ACAD
1000
Arial
1071
0
  0
STYLE
  5
5F
100
AcDbSymbolTableRecord
100
AcDbTextStyleTableRecord
  2
textstyle2
 70
0
 40
0.0
 41
1.0
 50
0.0
 71
0
 42
0.75
  3

  4

1001
ACAD
1000
Arial
1071
0
  0
STYLE
  5
60
100
AcDbSymbolTableRecord
100
AcDbTextStyleTableRecord
  2
textstyle3
 70
0
 40
0.0
 41
1.0
 50
0.0
 71
0
 42
0.375
  3

  4

1001
ACAD
1000
Arial
1071
0
  0
STYLE
  5
61
100
AcDbSymbolTableRecord
100
AcDbTextStyleTableRecord
  2
textstyle4
 70
0
 40
0.0
 41
1.0
 50
0.0
 71
0
 42
0.375
  3

  4

1001
ACAD
1000
Arial
1071
0
  0
ENDTAB
  0
TABLE
  2
VIEW
  5
6
100
AcDbSymbolTable
 70
0
  0
ENDTAB
  0
TABLE
  2
UCS
  5
7
100
AcDbSymbolTable
 70
0
  0
ENDTAB
  0
TABLE
  2
APPID
  5
9
100
AcDbSymbolTable
 70
1
  0
APPID
  5
12
100
AcDbSymbolTableRecord
100
AcDbRegAppTableRecord
  2
ACAD
 70
0
  0
APPID
  5
62
100
AcDbSymbolTableRecord
100
AcDbRegAppTableRecord
  2
QCAD
 70
0
  0
ENDTAB
  0
TABLE
  2
DIMSTYLE
  5
A
100
AcDbSymbolTable
 70
1
100
AcDbDimStyleTable
 71
0
  0
DIMSTYLE
105
27
100
AcDbSymbolTableRecord
100
AcDbDimStyleTableRecord
  2
Standard
 41
0.125
 42
0.03125
 43
3.75
 44
0.0625
 70
0
 73
0
 74
0
 77
1
 78
8
140
0.125
141
2.5
143
0.03937007874016
147
0.03125
171
3
172
1
271
2
272
2
274
3
278
44
283
0
284
8
340
5C
  0
ENDTAB
  0
TABLE
  2
BLOCK_RECORD
  5
1
100
AcDbSymbolTable
 70
1
  0
BLOCK_RECORD
  5
1F
100
AcDbSymbolTableRecord
100
AcDbBlockTableRecord
  2
*Model_Space
340
22
  0
BLOCK_RECORD
  5
1B
100
AcDbSymbolTableRecord
100
AcDbBlockTableRecord
  2
*Paper_Space
340
1E
  0
BLOCK_RECORD
  5
23
100
AcDbSymbolTableRecord
100
AcDbBlockTableRecord
  2
*Paper_Space0
340
26
  0
ENDTAB
  0
ENDSEC
  0
SECTION
  2
BLOCKS
  0
BLOCK
  5
20
100
AcDbEntity
  8
0
100
AcDbBlockBegin
  2
*Model_Space
 70
0
 10
0.0
 20
0.0
 30
0.0
  3
*Model_Space
  1

  0
ENDBLK
  5
21
100
AcDbEntity
  8
0
100
AcDbBlockEnd
  0
BLOCK
  5
1C
100
AcDbEntity
 67
1
  8
0
100
AcDbBlockBegin
  2
*Paper_Space
 70
0
 10
0.0
 20
0.0
 30
0.0
  3
*Paper_Space
  1

  0
ENDBLK
  5
1D
100
AcDbEntity
 67
1
  8
0
100
AcDbBlockEnd
  0
BLOCK
  5
24
100
AcDbEntity
  8
0
100
AcDbBlockBegin
  2
*Paper_Space0
 70
0
 10
0.0
 20
0.0
 30
0.0
  3
*Paper_Space0
  1

  0
ENDBLK
  5
25
100
AcDbEntity
  8
0
100
AcDbBlockEnd
  0
ENDSEC
  0
SECTION
  2
ENTITIES
  0
LWPOLYLINE
  5
63
100
AcDbEntity
  8
Visible
 62
256
370
-1
 48
1.0
  6
BYLAYER
100
AcDbPolyline
 90
4
 70
129
 10
28.0000000000000036
 20
3.0000000000000107
 10
4.0
 20
3.0
 10
4.0000000000000053
 20
11.0000000000000107
 10
27.9999999999999964
 20
11.0000000000000107
  0
DIMENSION
  5
64
100
AcDbEntity
  8
Dimension
 62
256
370
-1
 48
1.0
  6
BYLAYER
100
AcDbDimension
 10
27.9999999999999964
 20
11.4999999999999876
 30
0.0
 11
16.5000000000000462
 21
11.875
 31
0.0
 70
129
 71
8
 72
2
 74
0
 75
0
 41
1.0
 42
0.0
  1

  3
Standard
100
AcDbAlignedDimension
 13
27.9999999999999964
 23
11.0000000000000249
 33
0.0
 14
4.0000000000000844
 24
11.0000000000000053
 34
0.0
1001
ACAD
1000
DSTYLE
1002
{
1070
279
1070
2
1070
144
1040
1.0
1070
40
1040
4.0
1002
}
  0
DIMENSION
  5
65
100
AcDbEntity
  8
Dimension
 62
256
370
-1
 48
1.0
  6
BYLAYER
100
AcDbDimension
 10
28.9999999999999964
 20
11.0000000000000249
 30
0.0
 11
29.3749999999999964
 21
7.0000000000000053
 31
0.0
 70
128
 71
8
 72
2
 74
0
 75
0
 41
1.0
 42
0.0
  1

  3
Standard
100
AcDbAlignedDimension
 13
27.9999999999999964
 23
11.0000000000000249
 33
0.0
 14
27.9999999999999964
 24
3.0000000000000355
 34
0.0
 50
270.0
100
AcDbRotatedDimension
1001
ACAD
1000
DSTYLE
1002
{
1070
279
1070
2
1070
144
1040
1.0
1070
40
1040
4.0
1002
}
  0
LWPOLYLINE
  5
66
100
AcDbEntity
  8
Visible
 62
256
370
-1
 48
1.0
  6
BYLAYER
100
AcDbPolyline
 90
4
 70
129
 10
6.9999999999999876
 20
35.0
 10
6.9999999999999929
 20
37.2499999999999929
 10
13.9999999999999947
 20
37.2499999999999929
 10
13.9999999999999876
 20
35.0
  0
LWPOLYLINE
  5
67
100
AcDbEntity
  8
Visible
 62
256
370
-1
 48
1.0
  6
BYLAYER
100
AcDbPolyline
 90
8
 70
1
 10
2.999999999999984
 20
30.2500000000000071
 10
23.9999999999999787
 20
30.2499999999999751
 10
28.9999999999999645
 20
38.9102540378443678
 10
29.9999999999999645
 20
38.9102540378443678
 10
29.9999999999999716
 20
33.9999999999999858
 10
26.9999999999999858
 20
33.9999999999999574
 10
26.9999999999999787
 20
27.9999999999999822
 10
2.9999999999999876
 20
28.0
  0
DIMENSION
  5
68
100
AcDbEntity
  8
Dimension
 62
256
370
-1
 48
1.0
  6
BYLAYER
100
AcDbDimension
 10
27.9999999999999929
 20
23.1961524227065787
 30
0.0
 11
27.6249999999999929
 21
19.4730762113532769
 31
0.0
 70
0
 71
8
 72
2
 74
0
 75
0
 41
1.0
 42
0.0
  1

  3
Standard
100
AcDbAlignedDimension
 13
26.9999999999999787
 23
23.1961524227065965
 33
0.0
 14
26.9999999999999716
 24
15.7499999999999591
 34
0.0
 50
270.0
100
AcDbRotatedDimension
1001
ACAD
1000
DSTYLE
1002
{
1070
144
1040
1.0
1070
40
1040
4.0
1002
}
  0
DIMENSION
  5
69
100
AcDbEntity
  8
Dimension
 62
256
370
-1
 48
1.0
  6
BYLAYER
100
AcDbDimension
 10
1.9999999999999662
 20
17.9999999999999822
 30
0.0
 11
2.3749999999999694
 21
16.7499999999999893
 31
0.0
 70
128
 71
8
 72
2
 74
0
 75
0
 41
1.0
 42
0.0
  1

  3
Standard
100
AcDbAlignedDimension
 13
2.999999999999968
 23
18.0000000000000036
 33
0.0
 14
2.9999999999999911
 24
15.7499999999999769
 34
0.0
 50
270.0
100
AcDbRotatedDimension
1001
ACAD
1000
DSTYLE
1002
{
1070
279
1070
2
1070
144
1040
1.0
1070
40
1040
4.0
1002
}
  0
DIMENSION
  5
6A
100
AcDbEntity
  8
Dimension
 62
256
370
-1
 48
1.0
  6
BYLAYER
100
AcDbDimension
 10
26.9999999999999787
 20
24.0355762113532805
 30
0.0
 11
25.4999999999999929
 21
24.410576211353284
 31
0.0
 70
128
 71
8
 72
2
 74
0
 75
0
 41
1.0
 42
0.0
  1

  3
Standard
100
AcDbAlignedDimension
 13
26.9999999999999645
 23
23.1961524227066
 33
0.0
 14
24.0
 24
17.9999999999999787
 34
0.0
 50
180.0
100
AcDbRotatedDimension
1001
ACAD
1000
DSTYLE
1002
{
1070
279
1070
2
1070
144
1040
1.0
1070
40
1040
4.0
1002
}
  0
DIMENSION
  5
6B
100
AcDbEntity
  8
Dimension
 62
256
370
-1
 48
1.0
  6
BYLAYER
100
AcDbDimension
 10
23.9999999999999929
 20
18.9999999999999609
 30
0.0
 11
13.9999999999999858
 21
19.3749999999999574
 31
0.0
 70
128
 71
8
 72
2
 74
0
 75
0
 41
1.0
 42
0.0
  1

  3
Standard
100
AcDbAlignedDimension
 13
24.0
 23
17.9999999999999787
 33
0.0
 14
2.999999999999968
 24
18.0000000000000036
 34
0.0
 50
180.0
100
AcDbRotatedDimension
1001
ACAD
1000
DSTYLE
1002
{
1070
279
1070
2
1070
144
1040
1.0
1070
40
1040
4.0
1002
}
  0
DIMENSION
  5
6C
100
AcDbEntity
  8
Dimension
 62
256
370
-1
 48
1.0
  6
BYLAYER
100
AcDbDimension
 10
26.0334936490538844
 20
23.7541651245987957
 30
0.0
 11
24.8582531754730596
 21
20.9685889132454903
 31
0.0
 70
129
 71
8
 72
2
 74
0
 75
0
 41
1.0
 42
0.0
  1

  3
Standard
100
AcDbAlignedDimension
 13
26.9999999999999645
 23
23.1961524227066
 33
0.0
 14
24.0
 24
17.9999999999999787
 34
0.0
1001
ACAD
1000
DSTYLE
1002
{
1070
279
1070
2
1070
144
1040
1.0
1070
40
1040
4.0
1002
}
  0
DIMENSION
  5
6D
100
AcDbEntity
  8
Dimension
 62
256
370
-1
 48
1.0
  6
BYLAYER
100
AcDbDimension
 10
26.9999999999999716
 20
14.9999999999999378
 30
0.0
 11
14.9999999999999591
 21
15.3749999999999378
 31
0.0
 70
0
 71
8
 72
2
 74
0
 75
0
 41
1.0
 42
0.0
  1

  3
Standard
100
AcDbAlignedDimension
 13
26.9999999999999716
 23
15.7499999999999591
 33
0.0
 14
2.9999999999999467
 24
15.7499999999999787
 34
0.0
 50
180.0
100
AcDbRotatedDimension
1001
ACAD
1000
DSTYLE
1002
{
1070
144
1040
1.0
1070
40
1040
4.0
1002
}
  0
DIMENSION
  5
6E
100
AcDbEntity
  8
Dimension
 62
256
370
-1
 48
1.0
  6
BYLAYER
100
AcDbDimension
 10
28.9999999999999716
 20
39.9999999999999858
 30
0.0
 11
29.4999999999999716
 21
40.3749999999999858
 31
0.0
 70
128
 71
8
 72
2
 74
0
 75
0
 41
1.0
 42
0.0
  1

  3
Standard
100
AcDbAlignedDimension
 13
28.9999999999999645
 23
39.1602540378443535
 33
0.0
 14
29.9999999999999787
 24
39.1602540378443607
 34
0.0
 50
0.0
100
AcDbRotatedDimension
1001
ACAD
1000
DSTYLE
1002
{
1070
279
1070
2
1070
144
1040
1.0
1070
40
1040
4.0
1002
}
  0
DIMENSION
  5
6F
100
AcDbEntity
  8
Dimension
 62
256
370
-1
 48
1.0
  6
BYLAYER
100
AcDbDimension
 10
23.9999999999999929
 20
39.9999999999999716
 30
0.0
 11
26.4999999999999787
 21
40.3749999999999716
 31
0.0
 70
0
 71
8
 72
2
 74
0
 75
0
 41
1.0
 42
0.0
  1

  3
Standard
100
AcDbAlignedDimension
 13
23.9999999999999929
 23
30.4999999999999787
 33
0.0
 14
28.9999999999999645
 24
39.1602540378443535
 34
0.0
 50
0.0
100
AcDbRotatedDimension
1001
ACAD
1000
DSTYLE
1002
{
1070
144
1040
1.0
1070
40
1040
4.0
1002
}
  0
DIMENSION
  5
70
100
AcDbEntity
  8
Dimension
 62
256
370
-1
 48
1.0
  6
BYLAYER
100
AcDbDimension
 10
2.9999999999999667
 20
31.2499999999999858
 30
0.0
 11
13.5
 21
31.6249999999999858
 31
0.0
 70
0
 71
8
 72
2
 74
0
 75
0
 41
1.0
 42
0.0
  1

  3
Standard
100
AcDbAlignedDimension
 13
3.0000000000000222
 23
30.2500000000000107
 33
0.0
 14
23.9999999999999787
 24
30.2499999999999822
 34
0.0
 50
0.0
100
AcDbRotatedDimension
1001
ACAD
1000
DSTYLE
1002
{
1070
144
1040
1.0
1070
40
1040
4.0
1002
}
  0
DIMENSION
  5
71
100
AcDbEntity
  8
Dimension
 62
256
370
-1
 48
1.0
  6
BYLAYER
100
AcDbDimension
 10
23.2690810866546904
 20
30.6719962313756724
 30
0.0
 11
25.4443215602355153
 21
35.1896232502978563
 31
0.0
 70
1
 71
8
 72
2
 74
0
 75
0
 41
1.0
 42
0.0
  1

  3
Standard
100
AcDbAlignedDimension
 13
23.9999999999999787
 23
30.2499999999999822
 33
0.0
 14
28.9999999999999574
 24
38.9102540378443464
 34
0.0
1001
ACAD
1000
DSTYLE
1002
{
1070
144
1040
1.0
1070
40
1040
4.0
1002
}
  0
DIMENSION
  5
72
100
AcDbEntity
  8
Dimension
 62
256
370
-1
 48
1.0
  6
BYLAYER
100
AcDbDimension
 10
30.9999999999999716
 20
27.9999999999999751
 30
0.0
 11
30.6249999999999716
 21
30.9999999999999787
 31
0.0
 70
0
 71
8
 72
2
 74
0
 75
0
 41
1.0
 42
0.0
  1

  3
Standard
100
AcDbAlignedDimension
 13
26.9999999999999716
 23
27.9999999999999822
 33
0.0
 14
29.9999999999999716
 24
33.9999999999999787
 34
0.0
 50
90.0
100
AcDbRotatedDimension
1001
ACAD
1000
DSTYLE
1002
{
1070
144
1040
1.0
1070
40
1040
4.0
1002
}
  0
DIMENSION
  5
73
100
AcDbEntity
  8
Dimension
 62
256
370
-1
 48
1.0
  6
BYLAYER
100
AcDbDimension
 10
30.9999999999999716
 20
33.9999999999999858
 30
0.0
 11
30.6249999999999716
 21
36.4551270189221697
 31
0.0
 70
0
 71
8
 72
2
 74
0
 75
0
 41
1.0
 42
0.0
  1

  3
Standard
100
AcDbAlignedDimension
 13
29.9999999999999716
 23
33.9999999999999787
 33
0.0
 14
29.9999999999999645
 24
38.9102540378443535
 34
0.0
 50
90.0
100
AcDbRotatedDimension
1001
ACAD
1000
DSTYLE
1002
{
1070
144
1040
1.0
1070
40
1040
4.0
1002
}
  0
DIMENSION
  5
74
100
AcDbEntity
  8
Dimension
 62
256
370
-1
 48
1.0
  6
BYLAYER
100
AcDbDimension
 10
2.9999999999999853
 20
26.0
 30
0.0
 11
16.4999999999999787
 21
26.375
 31
0.0
 70
0
 71
8
 72
2
 74
0
 75
0
 41
1.0
 42
0.0
  1

  3
Standard
100
AcDbAlignedDimension
 13
2.9999999999999862
 23
28.0000000000000036
 33
0.0
 14
29.9999999999999716
 24
33.9999999999999858
 34
0.0
 50
0.0
100
AcDbRotatedDimension
1001
ACAD
1000
DSTYLE
1002
{
1070
144
1040
1.0
1070
40
1040
4.0
1002
}
  0
LWPOLYLINE
  5
75
100
AcDbEntity
  8
Visible
 62
256
370
-1
 48
1.0
  6
BYLAYER
100
AcDbPolyline
 90
5
 70
1
 10
2.9999999999999822
 20
15.7499999999999716
 10
2.9999999999999876
 20
18.0
 10
23.9999999999999929
 20
17.9999999999999751
 10
26.9999999999999787
 20
23.1961524227065894
 10
26.9999999999999716
 20
15.7499999999999432
  0
LWPOLYLINE
  5
76
100
AcDbEntity
  8
PageBorder
 62
256
370
-1
 48
1.0
  6
BYLAYER
100
AcDbPolyline
 90
4
 70
129
 10
1.0
 20
43.0
 10
33.0
 20
43.0
 10
33.0
 20
1.0
 10
1.0
 20
1.0
  0
DIMENSION
  5
77
100
AcDbEntity
  8
Dimension
 62
256
370
-1
 48
1.0
  6
BYLAYER
100
AcDbDimension
 10
6.9999999999999929
 20
38.25
 30
0.0
 11
10.4999999999999947
 21
38.625
 31
0.0
 70
0
 71
8
 72
2
 74
0
 75
0
 41
1.0
 42
0.0
  1

  3
Standard
100
AcDbAlignedDimension
 13
6.9999999999999876
 23
37.2499999999999929
 33
0.0
 14
14.0000000000000018
 24
37.2499999999999929
 34
0.0
 50
0.0
100
AcDbRotatedDimension
1001
ACAD
1000
DSTYLE
1002
{
1070
144
1040
1.0
1070
40
1040
4.0
1002
}
  0
DIMENSION
  5
78
100
AcDbEntity
  8
Dimension
 62
256
370
-1
 48
1.0
  6
BYLAYER
100
AcDbDimension
 10
5.9999999999999867
 20
35.0000000000000071
 30
0.0
 11
5.6249999999999867
 21
36.1249999999999929
 31
0.0
 70
0
 71
8
 72
2
 74
0
 75
0
 41
1.0
 42
0.0
  1

  3
Standard
100
AcDbAlignedDimension
 13
6.9999999999999911
 23
34.9999999999999929
 33
0.0
 14
6.9999999999999876
 24
37.2499999999999929
 34
0.0
 50
90.0
100
AcDbRotatedDimension
1001
ACAD
1000
DSTYLE
1002
{
1070
144
1040
1.0
1070
40
1040
4.0
1002
}
  0
DIMENSION
  5
79
100
AcDbEntity
  8
Dimension
 62
256
370
-1
 48
1.0
  6
BYLAYER
100
AcDbDimension
 10
1.9999999999999725
 20
27.9999999999999929
 30
0.0
 11
1.6249999999999725
 21
29.1250000000000036
 31
0.0
 70
0
 71
8
 72
2
 74
0
 75
0
 41
1.0
 42
0.0
  1

  3
Standard
100
AcDbAlignedDimension
 13
2.9999999999999862
 23
28.0000000000000036
 33
0.0
 14
2.9999999999999871
 24
30.2500000000000036
 34
0.0
 50
90.0
100
AcDbRotatedDimension
1001
ACAD
1000
DSTYLE
1002
{
1070
144
1040
1.0
1070
40
1040
4.0
1002
}
  0
DIMENSION
  5
7A
100
AcDbEntity
  8
Dimension
 62
256
370
-1
 48
1.0
  6
BYLAYER
100
AcDbDimension
 10
2.9999999999999849
 20
27.0000000000000036
 30
0.0
 11
14.9999999999999787
 21
27.3750000000000036
 31
0.0
 70
0
 71
8
 72
2
 74
0
 75
0
 41
1.0
 42
0.0
  1

  3
Standard
100
AcDbAlignedDimension
 13
2.9999999999999862
 23
28.0000000000000036
 33
0.0
 14
26.9999999999999716
 24
27.9999999999999822
 34
0.0
 50
0.0
100
AcDbRotatedDimension
1001
ACAD
1000
DSTYLE
1002
{
1070
144
1040
1.0
1070
40
1040
4.0
1002
}
  0
DIMENSION
  5
7B
100
AcDbEntity
  8
Dimension
 62
256
370
-1
 48
1.0
  6
BYLAYER
100
AcDbDimension
 10
26.9999999999999716
 20
26.9999999999999893
 30
0.0
 11
28.4999999999999716
 21
27.3749999999999893
 31
0.0
 70
0
 71
8
 72
2
 74
0
 75
0
 41
1.0
 42
0.0
  1

  3
Standard
100
AcDbAlignedDimension
 13
26.9999999999999716
 23
27.9999999999999822
 33
0.0
 14
29.9999999999999716
 24
33.9999999999999858
 34
0.0
 50
0.0
100
AcDbRotatedDimension
1001
ACAD
1000
DSTYLE
1002
{
1070
144
1040
1.0
1070
40
1040
4.0
1002
}
  0
MTEXT
  5
7C
100
AcDbEntity
  8
Dimension
 62
256
370
-1
 48
1.0
  6
BYLAYER
100
AcDbMText
 10
10.4999999999999858
 20
39.75
 30
0.0
 40
0.375
 41
0.0
 71
5
 72
1
  1
End pieces\P2x required
  7
textstyle0
 50
0.0
 73
2
 44
1.0
  0
MTEXT
  5
7D
100
AcDbEntity
  8
Dimension
 62
256
370
-1
 48
1.0
  6
BYLAYER
100
AcDbMText
 10
13.4999999999999876
 20
33.0
 30
0.0
 40
0.375
 41
0.0
 71
5
 72
1
  1
Outer side panel\POne required
  7
textstyle1
 50
0.0
 73
2
 44
1.0
  0
MTEXT
  5
7E
100
AcDbEntity
  8
Dimension
 62
256
370
-1
 48
1.0
  6
BYLAYER
100
AcDbMText
 10
16.5
 20
13.0000000000000053
 30
0.0
 40
0.375
 41
0.0
 71
5
 72
1
  1
Bottom Panel\POne required
  7
textstyle3
 50
0.0
 73
2
 44
1.0
  0
MTEXT
  5
7F
100
AcDbEntity
  8
Dimension
 62
256
370
-1
 48
1.0
  6
BYLAYER
100
AcDbMText
 10
13.9999999999999876
 20
20.5
 30
0.0
 40
0.375
 41
0.0
 71
5
 72
1
  1
Inner side panel\POne required
  7
textstyle4
 50
0.0
 73
2
 44
1.0
  0
HATCH
  5
80
100
AcDbEntity
  8
Hatch
 62
256
370
-1
 48
1.0
  6
BYLAYER
100
AcDbHatch
 10
0.0
 20
0.0
 30
0.0
210
0.0
220
0.0
230
1.0
  2
ANSI31
 70
0
 71
0
 91
1
 92
1
 93
4
 72
1
 10
6.9999999999999876
 20
35.0
 11
6.9999999999999929
 21
37.2499999999999929
 72
1
 10
6.9999999999999929
 20
37.2499999999999929
 11
13.9999999999999947
 21
37.2499999999999929
 72
1
 10
13.9999999999999947
 20
37.2499999999999929
 11
13.9999999999999876
 21
35.0
 72
1
 10
13.9999999999999876
 20
35.0
 11
6.9999999999999876
 21
35.0
 97
0
 75
0
 76
1
 52
0.0
 41
2.0
 77
0
 78
1
 53
45.0
 43
0.0
 44
0.0
 45
-0.0883883476483184
 46
0.0883883476483185
 79
0
 98
0
1001
ACAD
1010
0.0
1020
0.0
1030
0
  0
HATCH
  5
81
100
AcDbEntity
  8
Hatch
 62
256
370
-1
 48
1.0
  6
BYLAYER
100
AcDbHatch
 10
0.0
 20
0.0
 30
0.0
210
0.0
220
0.0
230
1.0
  2
ANSI31
 70
0
 71
0
 91
1
 92
1
 93
8
 72
1
 10
2.999999999999984
 20
30.2500000000000071
 11
23.9999999999999787
 21
30.2499999999999751
 72
1
 10
23.9999999999999787
 20
30.2499999999999751
 11
28.9999999999999645
 21
38.9102540378443678
 72
1
 10
28.9999999999999645
 20
38.9102540378443678
 11
29.9999999999999645
 21
38.9102540378443678
 72
1
 10
29.9999999999999645
 20
38.9102540378443678
 11
29.9999999999999716
 21
33.9999999999999858
 72
1
 10
29.9999999999999716
 20
33.9999999999999858
 11
26.9999999999999858
 21
33.9999999999999574
 72
1
 10
26.9999999999999858
 20
33.9999999999999574
 11
26.9999999999999787
 21
27.9999999999999822
 72
1
 10
26.9999999999999787
 20
27.9999999999999822
 11
2.9999999999999876
 21
28.0
 72
1
 10
2.9999999999999876
 20
28.0
 11
2.999999999999984
 21
30.2500000000000071
 97
0
 75
0
 76
1
 52
0.0
 41
2.0
 77
0
 78
1
 53
45.0
 43
0.0
 44
0.0
 45
-0.0883883476483184
 46
0.0883883476483185
 79
0
 98
0
1001
ACAD
1010
0.0
1020
0.0
1030
0
  0
HATCH
  5
82
100
AcDbEntity
  8
Hatch
 62
256
370
-1
 48
1.0
  6
BYLAYER
100
AcDbHatch
 10
0.0
 20
0.0
 30
0.0
210
0.0
220
0.0
230
1.0
  2
ANSI31
 70
0
 71
0
 91
1
 92
1
 93
5
 72
1
 10
2.9999999999999822
 20
15.7499999999999716
 11
2.9999999999999876
 21
18.0
 72
1
 10
2.9999999999999876
 20
18.0
 11
23.9999999999999929
 21
17.9999999999999751
 72
1
 10
23.9999999999999929
 20
17.9999999999999751
 11
26.9999999999999787
 21
23.1961524227065894
 72
1
 10
26.9999999999999787
 20
23.1961524227065894
 11
26.9999999999999716
 21
15.7499999999999432
 72
1
 10
26.9999999999999716
 20
15.7499999999999432
 11
2.9999999999999822
 21
15.7499999999999716
 97
0
 75
0
 76
1
 52
0.0
 41
2.0
 77
0
 78
1
 53
45.0
 43
0.0
 44
0.0
 45
-0.0883883476483184
 46
0.0883883476483185
 79
0
 98
0
1001
ACAD
1010
0.0
1020
0.0
1030
0
  0
HATCH
  5
83
100
AcDbEntity
  8
Hatch
 62
256
370
-1
 48
1.0
  6
BYLAYER
100
AcDbHatch
 10
0.0
 20
0.0
 30
0.0
210
0.0
220
0.0
230
1.0
  2
ANSI31
 70
0
 71
0
 91
1
 92
1
 93
4
 72
1
 10
28.0000000000000036
 20
3.0000000000000107
 11
4.0
 21
3.0
 72
1
 10
4.0
 20
3.0
 11
4.0000000000000053
 21
11.0000000000000107
 72
1
 10
4.0000000000000053
 20
11.0000000000000107
 11
27.9999999999999964
 21
11.0000000000000107
 72
1
 10
27.9999999999999964
 20
11.0000000000000107
 11
28.0000000000000036
 21
3.0000000000000107
 97
0
 75
0
 76
1
 52
0.0
 41
2.0
 77
0
 78
1
 53
45.0
 43
0.0
 44
0.0
 45
-0.0883883476483184
 46
0.0883883476483185
 79
0
 98
0
1001
ACAD
1010
0.0
1020
0.0
1030
0
  0
MTEXT
  5
84
100
AcDbEntity
  8
PageBorder
 62
256
370
-1
 48
1.0
  6
BYLAYER
100
AcDbMText
 10
17.0
 20
42.0
 30
0.0
 40
0.75
 41
0.0
 71
5
 72
1
  1
MDF Pieces for Right Console
  7
textstyle2
 50
0.0
 73
2
 44
1.0
  0
DIMENSION
  5
85
100
AcDbEntity
  8
Dimension
 62
256
370
-1
 48
1.0
  6
BYLAYER
100
AcDbDimension
 10
21.9497474683057945
 20
23.1961524227065929
 30
0.0
 11
21.5747474683057945
 21
20.5980762113532876
 31
0.0
 70
0
 71
8
 72
2
 74
0
 75
0
 41
1.0
 42
0.0
  1

  3
Standard
100
AcDbAlignedDimension
 13
26.9999999999999787
 23
23.1961524227065965
 33
0.0
 14
23.9999999999999929
 24
17.9999999999999787
 34
0.0
 50
90.0
100
AcDbRotatedDimension
1001
ACAD
1000
DSTYLE
1002
{
1070
144
1040
1.0
1070
40
1040
4.0
1002
}
  0
DIMENSION
  5
86
100
AcDbEntity
  8
Dimension
 62
256
370
-1
 48
1.0
  6
BYLAYER
100
AcDbDimension
 10
22.5324855787277585
 20
38.9102540378443678
 30
0.0
 11
22.1574855787277585
 21
34.5801270189221697
 31
0.0
 70
0
 71
8
 72
2
 74
0
 75
0
 41
1.0
 42
0.0
  1

  3
Standard
100
AcDbAlignedDimension
 13
28.9999999999999645
 23
38.9102540378443607
 33
0.0
 14
23.9999999999999716
 24
30.2499999999999751
 34
0.0
 50
90.0
100
AcDbRotatedDimension
1001
ACAD
1000
DSTYLE
1002
{
1070
144
1040
1.0
1070
40
1040
4.0
1002
}
  0
DIMENSION
  5
87
100
AcDbEntity
  8
Dimension
 62
256
370
-1
 48
1.0
  6
BYLAYER
100
AcDbDimension
 10
32.0
 20
27.9999999999999822
 30
0.0
 11
31.625
 21
33.4551270189221768
 31
0.0
 70
0
 71
8
 72
2
 74
0
 75
0
 41
1.0
 42
0.0
  1

  3
Standard
100
AcDbAlignedDimension
 13
26.9999999999999787
 23
27.9999999999999822
 33
0.0
 14
29.9999999999999645
 24
38.9102540378443678
 34
0.0
 50
90.0
100
AcDbRotatedDimension
1001
ACAD
1000
DSTYLE
1002
{
1070
144
1040
1.0
1070
40
1040
4.0
1002
}
  0
ENDSEC
  0
SECTION
  2
OBJECTS
  0
DICTIONARY
  5
C
100
AcDbDictionary
280
0
281
1
  3
ACAD_GROUP
350
D
  3
ACAD_LAYOUT
350
1A
  3
ACAD_MLINESTYLE
350
17
  3
ACAD_PLOTSETTINGS
350
19
  3
ACAD_PLOTSTYLENAME
350
E
  3
AcDbVariableDictionary
350
88
  3
QCAD_OBJECTS
350
89
  0
DICTIONARY
  5
D
100
AcDbDictionary
280
0
281
1
  0
ACDBDICTIONARYWDFLT
  5
E
100
AcDbDictionary
281
1
  3
Normal
350
F
100
AcDbDictionaryWithDefault
340
F
  0
ACDBPLACEHOLDER
  5
F
  0
DICTIONARY
  5
17
100
AcDbDictionary
280
0
281
1
  3
Standard
350
18
  0
MLINESTYLE
  5
18
100
AcDbMlineStyle
  2
STANDARD
 70
0
  3

 62
256
 51
90.0
 52
90.0
 71
2
 49
0.5
 62
256
  6
BYLAYER
 49
-0.5
 62
256
  6
BYLAYER
  0
DICTIONARY
  5
19
100
AcDbDictionary
280
0
281
1
  0
DICTIONARY
  5
1A
100
AcDbDictionary
281
1
  3
Layout1
350
1E
  3
Layout2
350
26
  3
Model
350
22
  0
LAYOUT
  5
1E
100
AcDbPlotSettings
  1

  2
none_device
  4

  6

 40
0.0
 41
0.0
 42
0.0
 43
0.0
 44
0.0
 45
0.0
 46
0.0
 47
0.0
 48
0.0
 49
0.0
140
0.0
141
0.0
142
1.0
143
1.0
 70
688
 72
0
 73
0
 74
5
  7

 75
16
147
1.0
148
0.0
149
0.0
100
AcDbLayout
  1
Layout1
 70
1
 71
1
 10
0.0
 20
0.0
 11
420.0
 21
297.0
 12
0.0
 22
0.0
 32
0.0
 14
100000000000000000000.0
 24
100000000000000000000.0
 34
100000000000000000000.0
 15
-100000000000000000000.0
 25
-100000000000000000000.0
 35
-100000000000000000000.0
146
0.0
 13
0.0
 23
0.0
 33
0.0
 16
1.0
 26
0.0
 36
0.0
 17
0.0
 27
1.0
 37
0.0
 76
0
330
1B
  0
LAYOUT
  5
22
100
AcDbPlotSettings
  1

  2
none_device
  4

  6

 40
0.0
 41
0.0
 42
0.0
 43
0.0
 44
0.0
 45
0.0
 46
0.0
 47
0.0
 48
0.0
 49
0.0
140
0.0
141
0.0
142
1.0
143
1.0
 70
1712
 72
0
 73
0
 74
0
  7

 75
0
147
1.0
148
0.0
149
0.0
100
AcDbLayout
  1
Model
 70
1
 71
0
 10
0.0
 20
0.0
 11
12.0
 21
9.0
 12
0.0
 22
0.0
 32
0.0
 14
0.0
 24
0.0
 34
0.0
 15
0.0
 25
0.0
 35
0.0
146
0.0
 13
0.0
 23
0.0
 33
0.0
 16
1.0
 26
0.0
 36
0.0
 17
0.0
 27
1.0
 37
0.0
 76
0
330
1F
  0
LAYOUT
  5
26
100
AcDbPlotSettings
  1

  2
none_device
  4

  6

 40
0.0
 41
0.0
 42
0.0
 43
0.0
 44
0.0
 45
0.0
 46
0.0
 47
0.0
 48
0.0
 49
0.0
140
0.0
141
0.0
142
1.0
143
1.0
 70
688
 72
0
 73
0
 74
5
  7

 75
16
147
1.0
148
0.0
149
0.0
100
AcDbLayout
  1
Layout2
 70
1
 71
2
 10
0.0
 20
0.0
 11
12.0
 21
9.0
 12
0.0
 22
0.0
 32
0.0
 14
0.0
 24
0.0
 34
0.0
 15
0.0
 25
0.0
 35
0.0
146
0.0
 13
0.0
 23
0.0
 33
0.0
 16
1.0
 26
0.0
 36
0.0
 17
0.0
 27
1.0
 37
0.0
 76
0
330
23
  0
DICTIONARY
  5
88
100
AcDbDictionary
281
1
  3
DIMASSOC
350
8B
  3
HIDETEXT
350
8A
  0
DICTIONARYVAR
  5
8A
100
DictionaryVariables
280
0
  1
2
  0
DICTIONARYVAR
  5
8B
100
DictionaryVariables
280
0
  1
1
  0
DICTIONARY
  5
89
100
AcDbDictionary
281
1
  3
ColorSettings/BackgroundColor
350
8C
  3
ColorSettings/ColorMode
350
8D
  3
DimensionSettings/AngularFormat
350
8E
  3
DimensionSettings/AngularPrecision
350
8F
  3
DimensionSettings/DecimalPoint
350
90
  3
DimensionSettings/DimensionFont
350
91
  3
DimensionSettings/KeepProportions
350
92
  3
DimensionSettings/LinearFormat
350
93
  3
DimensionSettings/LinearPrecision
350
94
  3
Grid/DisplayGrid00
350
95
  3
Grid/DisplayGrid01
350
96
  3
Grid/DisplayGrid02
350
97
  3
Grid/DisplayGrid03
350
98
  3
Grid/GridSpacingX00
350
99
  3
Grid/GridSpacingX01
350
9A
  3
Grid/GridSpacingX02
350
9B
  3
Grid/GridSpacingX03
350
9C
  3
Grid/GridSpacingY00
350
9D
  3
Grid/GridSpacingY01
350
9E
  3
Grid/GridSpacingY02
350
9F
  3
Grid/GridSpacingY03
350
A0
  3
Grid/IsometricGrid00
350
A1
  3
Grid/IsometricGrid01
350
A2
  3
Grid/IsometricGrid02
350
A3
  3
Grid/IsometricGrid03
350
A4
  3
Grid/IsometricProjection00
350
A5
  3
Grid/IsometricProjection01
350
A6
  3
Grid/IsometricProjection02
350
A7
  3
Grid/IsometricProjection03
350
A8
  3
Grid/MetaGridSpacingX00
350
A9
  3
Grid/MetaGridSpacingX01
350
AA
  3
Grid/MetaGridSpacingX02
350
AB
  3
Grid/MetaGridSpacingX03
350
AC
  3
Grid/MetaGridSpacingY00
350
AD
  3
Grid/MetaGridSpacingY01
350
AE
  3
Grid/MetaGridSpacingY02
350
AF
  3
Grid/MetaGridSpacingY03
350
B0
  3
MultiPageSettings/Columns
350
B1
  3
MultiPageSettings/GlueMarginsBottom
350
B2
  3
MultiPageSettings/GlueMarginsLeft
350
B3
  3
MultiPageSettings/GlueMarginsRight
350
B4
  3
MultiPageSettings/GlueMarginsTop
350
B5
  3
MultiPageSettings/PrintCropMarks
350
B6
  3
MultiPageSettings/Rows
350
B7
  3
PageSettings/OffsetX
350
B8
  3
PageSettings/OffsetY
350
B9
  3
PageSettings/PageOrientation
350
BA
  3
PageSettings/PaperHeight
350
BB
  3
PageSettings/PaperSizeName
350
BC
  3
PageSettings/PaperWidth
350
BD
  3
PageSettings/PointSize
350
BE
  3
PageSettings/Scale
350
BF
  3
PageSettings/ShowPaperBorders
350
C0
  3
PageTagSettings/EnablePageTags
350
C1
  3
PageTagSettings/TagAlignment
350
C2
  3
PageTagSettings/TagFont
350
C3
  3
PageTagSettings/TagPosition
350
C4
  3
QCADVersion
350
C5
  3
UnitSettings/Measurement
350
C6
  3
UnitSettings/PaperUnit
350
C7
  3
ViewportCenter
350
C8
  3
ViewportHeight
350
C9
  3
ViewportWidth
350
CA
  0
XRECORD
  5
8C
330
89
100
AcDbXrecord
280
1
1000
White
  0
XRECORD
  5
8D
330
89
100
AcDbXrecord
280
1
1000
FullColor
  0
XRECORD
  5
8E
330
89
100
AcDbXrecord
280
1
 90
0
  0
XRECORD
  5
8F
330
89
100
AcDbXrecord
280
1
 90
0
  0
XRECORD
  5
90
330
89
100
AcDbXrecord
280
1
 90
46
  0
XRECORD
  5
91
330
89
100
AcDbXrecord
280
1
1000
MS Shell Dlg 2
  0
XRECORD
  5
92
330
89
100
AcDbXrecord
280
1
290
1
  0
XRECORD
  5
93
330
89
100
AcDbXrecord
280
1
 90
5
  0
XRECORD
  5
94
330
89
100
AcDbXrecord
280
1
 90
5
  0
XRECORD
  5
95
330
89
100
AcDbXrecord
280
1
290
1
  0
XRECORD
  5
96
330
89
100
AcDbXrecord
280
1
290
1
  0
XRECORD
  5
97
330
89
100
AcDbXrecord
280
1
290
1
  0
XRECORD
  5
98
330
89
100
AcDbXrecord
280
1
290
1
  0
XRECORD
  5
99
330
89
100
AcDbXrecord
280
1
1000
auto
  0
XRECORD
  5
9A
330
89
100
AcDbXrecord
280
1
1000
auto
  0
XRECORD
  5
9B
330
89
100
AcDbXrecord
280
1
1000
auto
  0
XRECORD
  5
9C
330
89
100
AcDbXrecord
280
1
1000
auto
  0
XRECORD
  5
9D
330
89
100
AcDbXrecord
280
1
1000
auto
  0
XRECORD
  5
9E
330
89
100
AcDbXrecord
280
1
1000
auto
  0
XRECORD
  5
9F
330
89
100
AcDbXrecord
280
1
1000
auto
  0
XRECORD
  5
A0
330
89
100
AcDbXrecord
280
1
1000
auto
  0
XRECORD
  5
A1
330
89
100
AcDbXrecord
280
1
290
0
  0
XRECORD
  5
A2
330
89
100
AcDbXrecord
280
1
290
0
  0
XRECORD
  5
A3
330
89
100
AcDbXrecord
280
1
290
0
  0
XRECORD
  5
A4
330
89
100
AcDbXrecord
280
1
290
0
  0
XRECORD
  5
A5
330
89
100
AcDbXrecord
280
1
 90
65540
  0
XRECORD
  5
A6
330
89
100
AcDbXrecord
280
1
 90
65537
  0
XRECORD
  5
A7
330
89
100
AcDbXrecord
280
1
 90
65537
  0
XRECORD
  5
A8
330
89
100
AcDbXrecord
280
1
 90
65537
  0
XRECORD
  5
A9
330
89
100
AcDbXrecord
280
1
1000
auto
  0
XRECORD
  5
AA
330
89
100
AcDbXrecord
280
1
1000
auto
  0
XRECORD
  5
AB
330
89
100
AcDbXrecord
280
1
1000
auto
  0
XRECORD
  5
AC
330
89
100
AcDbXrecord
280
1
1000
auto
  0
XRECORD
  5
AD
330
89
100
AcDbXrecord
280
1
1000
auto
  0
XRECORD
  5
AE
330
89
100
AcDbXrecord
280
1
1000
auto
  0
XRECORD
  5
AF
330
89
100
AcDbXrecord
280
1
1000
auto
  0
XRECORD
  5
B0
330
89
100
AcDbXrecord
280
1
1000
auto
  0
XRECORD
  5
B1
330
89
100
AcDbXrecord
280
1
 90
1
  0
XRECORD
  5
B2
330
89
100
AcDbXrecord
280
1
 40
10.0
  0
XRECORD
  5
B3
330
89
100
AcDbXrecord
280
1
 40
10.0
  0
XRECORD
  5
B4
330
89
100
AcDbXrecord
280
1
 40
10.0
  0
XRECORD
  5
B5
330
89
100
AcDbXrecord
280
1
 40
10.0
  0
XRECORD
  5
B6
330
89
100
AcDbXrecord
280
1
290
0
  0
XRECORD
  5
B7
330
89
100
AcDbXrecord
280
1
 90
1
  0
XRECORD
  5
B8
330
89
100
AcDbXrecord
280
1
 90
0
  0
XRECORD
  5
B9
330
89
100
AcDbXrecord
280
1
 90
0
  0
XRECORD
  5
BA
330
89
100
AcDbXrecord
280
1
1000
Portrait
  0
XRECORD
  5
BB
330
89
100
AcDbXrecord
280
1
1000
11
  0
XRECORD
  5
BC
330
89
100
AcDbXrecord
280
1
1000
ANSI A (Letter)
  0
XRECORD
  5
BD
330
89
100
AcDbXrecord
280
1
1000
8.5
  0
XRECORD
  5
BE
330
89
100
AcDbXrecord
280
1
1000
0.5
  0
XRECORD
  5
BF
330
89
100
AcDbXrecord
280
1
1000
1" = 4"
  0
XRECORD
  5
C0
330
89
100
AcDbXrecord
280
1
290
1
  0
XRECORD
  5
C1
330
89
100
AcDbXrecord
280
1
290
0
  0
XRECORD
  5
C2
330
89
100
AcDbXrecord
280
1
1000
Inside
  0
XRECORD
  5
C3
330
89
100
AcDbXrecord
280
1
1000
Arial,10,-1,5,50,0,0,0,0,0
  0
XRECORD
  5
C4
330
89
100
AcDbXrecord
280
1
1000
TopLeft
  0
XRECORD
  5
C5
330
89
100
AcDbXrecord
280
1
1000
3.24.3
  0
XRECORD
  5
C6
330
89
100
AcDbXrecord
280
1
 90
0
  0
XRECORD
  5
C7
330
89
100
AcDbXrecord
280
1
 90
1
  0
XRECORD
  5
C9
330
89
100
AcDbXrecord
280
1
 40
45.2222222222222214
  0
XRECORD
  5
CA
330
89
100
AcDbXrecord
280
1
 40
91.9722222222222143
  0
ENDSEC
  0
EOF
